# xmcd
#
# Track frame offsets:
#	150
#	40087
#	79854
#	125328
#	143330
#	162878
#
# Disc length: 2487 seconds
#
# Revision: 1
# Processed by: cddbd v1.5.2PL0 Copyright (c) Steve Scherf et al.
# Submitted via: audiograbber 1.83.01
#
DISCID=3f09b506
DTITLE=Grateful Dead - 80-09-29 Warfield Theatre, San Francisco CA
DYEAR=1900
DGENRE=
TTITLE0=Space
TTITLE1=Truckin'
TTITLE2=Wharf Rat
TTITLE3=Around and Around
TTITLE4=Johnny B Goode
TTITLE5=US Blues
EXTD=
EXTT0=
EXTT1=
EXTT2=
EXTT3=
EXTT4=
EXTT5=
PLAYORDER=
